<svg xmlns="http://www.w3.org/2000/svg" width="1439" height="629"><path fill="#69a44e" d="M190.035 176.604c23.742-1.807 59.111.82 83.774 1.607 34.192.917 68.397 1.245 102.6.982-1.555 13.808-4.304 27.555-5.759 41.313-19.427-1.205-36.847.135-56.423-2.244 13.937 10.99 27.34 25.417 26.482 44.177-2.193 47.908-62.385 64.504-101.643 69.005-14.274 1.637-55.346.248-63.752 8.473-.917 2.522-.927 1.537-.26 3.824 7.28 8.203 63.464 5.24 77.547 5.892a346 346 0 0 1 42.983 4.455c27.11 4.655 63.9 14.025 80.518 37.481 7.573 10.687 9.085 22.39 6.961 35.1-2.73 16.327-14.42 30.739-27.993 39.648-57.08 37.467-175.353 37.684-239.314 25.548C94.905 487 75.482 481.513 57.334 469.71c-17.933-11.347-29.982-37.142-16.251-56.174 15.017-20.814 50.294-22.03 73.756-26.117l11.75 20.448c-8.306 5.173-19.499 16.625-13.946 26.742 9.179 16.724 36.921 21.642 53.801 23.174 37.377 3.393 76.995 3.548 111.997-11.468 13.926-5.974 25.132-20.8 17.415-36.251-9.332-17.635-35.054-19.537-52.599-21.665-38.016-4.109-77.625 2.446-114.817-8.481-8.03-2.359-18.294-8.176-21.651-16.056-9.913-23.271 7.9-33.254 24.84-41.676-17.09-3.818-34.441-11.366-48.4-22.058-25.192-19.297-29.582-53.577-8.741-78.152 28.075-33.108 74.44-41.263 115.547-45.372m20.892 118.912c18.284-1.346 37.407-3.772 50.08-18.36 13.206-15.203 8.258-36.176-6.435-47.981-16.721-13.434-39.675-16.735-60.34-15.26-18.747 1.24-36.763 4.872-49.836 19.349-12.173 13.478-9.36 33.33 4.083 44.63 16.234 13.646 41.813 18.4 62.448 17.622"/><path fill="#2a363e" d="M685.522 182.96c27.56-.996 67.618 3.538 88.334 22.67 26.632 24.594 8.83 64.545-11.897 86.263-35.965 37.682-93.755 59.802-144.977 61.45-37.105.782-99.668-3.326-104.27-52.028-1.8-19.06 11.294-43.293 23.82-57.05 37.882-41.606 94.33-58.197 148.99-61.305M616.12 310.749c33.877-2.078 71.908-16.766 94.962-41.93 7.932-8.658 19.28-28.266 7.499-38.255-7.536-6.39-27.48-7.534-36.932-6.188-36.727 3.79-71.378 16.28-96.013 45.305-26.711 31.472-1.265 46 30.484 41.068M889.128 186.51c34.364-.127 85.268-3.05 113.181 19.918 27.51 22.633 9.948 63.12-9.33 85.274-32.193 36.991-81.177 52.846-128.715 56.717-16.239 1.758-37.177 1.41-53.697 1.42l-74.517.005c7.63-14.914 25.292-40.261 34.862-55.415l67.432-107.905zm-10.044 40.967c-15.151 25.82-34.028 56.665-50.818 80.98 16.54-.019 44.828.15 59.87-6.11 24.943-7.458 67.817-31.72 63.948-63.709-1.695-13.945-55.232-11.682-67.34-11.373zM1206.656 187.945c-.028 1.744-19.586 34.279-22.124 38.611-21.403.956-49.148.113-71.038.096l-13.114 21.243c22.621-.297 45.766-.028 68.434-.007-6.744 12.841-17.047 28.863-24.719 41.392-22.658-.079-46.993-.6-69.52.041-4.047 6.094-9.461 13.917-12.533 20.367 24.325.536 49.869.133 74.279.117-3.016 5.792-22.097 39.069-26.171 40.018l-143.707.02c8.187-16.795 24.43-39.056 34.592-55.449 21.956-35.443 43.78-71.099 66.327-106.154 11.493-.638 29.412.028 41.476.053 32.606.294 65.222.178 97.818-.348"/><path fill="#2a363e" d="M430.014 186.513q69.626.503 139.253.157c-3.178 7.942-17.673 30.59-22.687 38.852-21.292-.064-53.341-1.057-73.765.447a1205 1205 0 0 0-13.164 21q33.731.402 67.465.178c-7.576 11.772-16.453 28.18-23.65 40.588-21.502.822-46.907.16-68.702.144-2.215 3.368-11.74 17.063-11.858 20.222l1.939.362c23.62.362 48.072.006 71.754-.025-7.414 13.31-16.297 27.205-24.108 40.493-48.17.53-96.346.577-144.518.138 5.153-10.257 98.78-161.015 100.17-161.916.445-.288 1.345-.46 1.871-.64M1213.157 188.37c18.406-.781 42.394-.075 61.1-.073l117.61.093c-7.072 12.656-14.93 25.57-22.359 38.058-17.843.515-36.942.193-54.88.187-16.945 29.322-35.781 58.963-53.719 87.747l-21.759 35.462-71.844.14c4.702-10.646 19.736-33.174 26.443-43.962l48.923-79.166c-15.67-.766-35.931-.222-51.949-.248a754 754 0 0 0 22.434-38.239"/></svg>