<?xml version="1.0" encoding="utf-8" ?><svg xmlns="http://www.w3.org/2000/svg" xmlns:xlink="http://www.w3.org/1999/xlink" width="1439" height="629" viewBox="0 0 1439 629"><path fill="#29363E" transform="scale(0.936685 0.936685)" d="M0 0L1536 0L1536 672L0 672L0 0Z"/><path fill="#68A44D" transform="scale(0.936685 0.936685)" d="M201.872 188.695C209.431 187.814 217.046 188.237 224.636 188.113C245.106 187.78 265.519 189.424 285.981 190.074C324.582 191.271 363.204 191.674 401.822 191.282C400.373 205.4 397.633 221.15 395.474 235.298C380.848 234.587 348.593 235.536 335.255 233.025C346.841 242.203 356.965 251.161 361.618 265.777C365.481 278.046 364.238 291.354 358.169 302.696C339.359 338.658 283.341 352.211 245.487 354.874C237.446 355.44 181 353.873 186.912 367.395C195.483 374.407 227.423 372.8 240.408 372.964C287.984 371.408 422.886 380.384 409.202 454.97C395.385 530.274 248.034 534.048 189.696 532.399C166.87 531.753 146.433 528.834 125.305 525.463C102.526 520.225 86.2926 515.982 65.119 503.996C44.751 492.465 28.8042 465.555 42.8988 443.14C58.2226 418.77 96.9154 419.115 122.53 413.504L134.99 435.319C125.795 441.988 114.22 452.442 120.721 464.597C129.783 481.54 159.292 486.9 176.217 488.629C216.22 492.715 260.019 492.212 297.556 476.505C312.836 470.111 324.048 454.017 315.703 437.289C305.797 419.038 277.134 416.806 258.856 414.679C218.695 410.075 177.888 417.328 138.504 406.035C120.525 400.879 106.468 387.713 112.289 367.772C115.642 356.284 130.862 348.614 140.694 343.965C108.283 335.838 69.5095 318.031 65.5884 280.109C63.9974 264.722 69.782 248.187 79.8839 236.554C109.652 202.275 158.868 192.537 201.872 188.695Z"/><path fill="#29363E" transform="scale(0.936685 0.936685)" d="M207.457 228.318C208.053 228.272 208.649 228.232 209.246 228.198C231.361 226.93 256.109 230.99 273.42 246.013C288.61 259.197 292.053 281.694 277.803 297.037C264.745 311.096 244.335 314.541 225.937 315.457C203.582 316.487 175.59 311.272 158.018 296.44C143.679 284.337 141.61 262.475 154.699 248.477C168.399 233.827 188.045 229.342 207.457 228.318Z"/><path fill="white" transform="scale(0.936685 0.936685)" d="M721.109 196.06L721.556 196.013C751.803 192.959 798.926 197.332 823.38 217.069C852.915 240.907 839.658 282.026 817.911 306.988C781.094 349.249 721.267 372.182 666.341 376.94C626.892 379.61 553.167 375.497 547.365 323.147C545.061 302.354 558.515 276.505 572.151 261.374C609.32 220.13 666.893 200.158 721.109 196.06Z"/><path fill="#29363E" transform="scale(0.936685 0.936685)" d="M727.246 239.552L727.782 239.488C737.888 238.332 758.779 239.405 767.077 246.208C779.214 256.161 768.414 276.474 760.259 285.816C736.055 313.541 694.78 328.786 658.684 331.922C655.72 332.378 652.35 332.135 649.338 332.245C614.731 333.513 601.518 316.935 625.539 287.706C650.105 257.813 689.277 243.418 727.246 239.552Z"/><path fill="white" transform="scale(0.936685 0.936685)" d="M895.145 198.946C919.276 199.519 943.34 198.773 967.692 199.111C1002.04 199.589 1048.48 197.859 1074.51 224.338C1092.15 242.806 1085.42 272.691 1073.92 292.306C1050.38 332.484 1011.17 353.172 967.98 364.926C929.483 374.263 897.662 373.628 858.651 373.657L785.678 373.667C788.85 367.153 795.833 356.763 799.89 350.398L824.684 311.521L895.145 198.946Z"/><path fill="#29363E" transform="scale(0.936685 0.936685)" d="M938.735 242.89C947.277 242.801 956.59 242.457 965.032 242.847C979.609 243.659 996.046 242.022 1009.81 247.51C1020.28 251.683 1017.36 266.128 1013.58 274.018C1002.69 296.751 978.663 311.781 956.124 320.323C928.404 329.798 912.618 329.407 884.491 329.244C902.066 303.985 922.278 269.548 938.735 242.89Z"/><path fill="white" transform="scale(0.936685 0.936685)" d="M1139.64 200.74C1188.36 201.142 1240.48 201.556 1289.07 200.622C1280.67 214.338 1272.49 228.194 1264.54 242.182L1188.71 242.192C1184.29 249.677 1179.42 257.244 1174.79 264.631L1247.92 264.687C1239.96 279.161 1230.11 294.773 1221.43 308.938L1147.3 308.804C1143.54 314.666 1137.56 323.481 1134.46 329.367L1134.99 330.597C1160.36 331.123 1187.73 330.66 1213.21 330.706C1205.31 344.61 1195.74 359.923 1187.31 373.61C1135.72 373.623 1082.99 373.033 1031.49 373.7C1039.09 358.905 1057.83 331.471 1067.37 316.232C1091.27 278.032 1115.2 238.53 1139.64 200.74Z"/><path fill="white" transform="scale(0.936685 0.936685)" d="M457.173 199.01C506.775 199.058 558.923 199.951 608.269 199.058C602.887 209.904 590.192 229.868 583.545 241.04C558.275 240.638 529.956 240.586 504.734 241.154L490.785 263.677C514.143 264.177 539.126 263.544 562.789 263.804C554.518 278.392 546.075 292.883 537.462 307.272C513.104 307.495 488.507 307.266 464.131 307.208C459.734 314.526 455.221 321.775 450.594 328.95C454.299 329.707 471.686 329.456 476.286 329.446L530.148 329.296C522.601 342.989 512.535 358.858 504.4 372.48C454.679 373.734 400.282 372.649 350.157 372.711C358.736 356.312 376.741 329.224 386.944 312.665L457.173 199.01Z"/><path fill="white" transform="scale(0.936685 0.936685)" d="M1295.35 200.904C1358.48 200.83 1423.45 201.664 1486.33 200.692C1478.76 214.374 1469.88 228.305 1462.01 242.078L1403.42 242.163C1385.18 273.501 1364.52 306.161 1345.35 337.09L1322.89 373.618C1297.34 373.919 1271.45 373.246 1245.92 373.944C1251.73 362.222 1265.74 341.004 1273.12 329.022L1326.68 242.108L1270.98 242.117C1278.92 229.954 1287.88 213.698 1295.35 200.904Z"/></svg>