<?xml version="1.0" encoding="utf-8" ?><svg xmlns="http://www.w3.org/2000/svg" xmlns:xlink="http://www.w3.org/1999/xlink" width="1439" height="629" viewBox="0 0 1439 629"><path fill="#69A44E" transform="scale(0.936685 0.936685)" d="M202.88 188.541C228.227 186.612 265.987 189.417 292.317 190.257C328.82 191.236 365.337 191.586 401.852 191.306C400.192 206.047 397.257 220.723 395.704 235.411C374.964 234.125 356.366 235.555 335.467 233.015C350.346 244.749 364.655 260.15 363.739 280.179C361.398 331.325 297.137 349.043 255.226 353.848C239.987 355.595 196.138 354.113 187.164 362.894C186.185 365.586 186.175 364.534 186.886 366.976C194.658 375.734 254.641 372.571 269.676 373.266C285.056 373.894 300.382 375.482 315.564 378.022C344.506 382.992 383.783 392.995 401.525 418.037C409.609 429.446 411.224 441.94 408.956 455.51C406.042 472.94 393.562 488.326 379.071 497.838C318.133 537.837 191.865 538.069 123.58 525.112C101.32 519.92 80.5842 514.061 61.2099 501.46C42.0644 489.346 29.2008 461.807 43.86 441.489C59.8924 419.268 97.5538 417.969 122.601 413.607L135.145 435.437C126.278 440.959 114.329 453.185 120.257 463.986C130.056 481.841 159.674 487.091 177.695 488.727C217.598 492.349 259.894 492.515 297.262 476.484C312.129 470.106 324.093 454.277 315.854 437.782C305.892 418.955 278.431 416.925 259.7 414.653C219.114 410.266 176.828 417.264 137.122 405.598C128.55 403.08 117.591 396.87 114.007 388.457C103.424 363.613 122.442 352.955 140.526 343.964C122.282 339.888 103.757 331.83 88.8544 320.415C61.9605 299.814 57.2731 263.217 79.5225 236.98C109.496 201.634 158.995 192.928 202.88 188.541ZM225.185 315.491C244.704 314.054 265.12 311.464 278.649 295.89C292.748 279.66 287.466 257.269 271.78 244.666C253.928 230.324 229.423 226.8 207.361 228.375C187.347 229.699 168.113 233.576 154.156 249.031C141.161 263.42 144.163 284.614 158.515 296.678C175.847 311.247 203.155 316.321 225.185 315.491Z"/><path fill="#2A363E" transform="scale(0.936685 0.936685)" d="M731.86 195.327C761.282 194.264 804.048 199.104 826.165 219.529C854.597 245.786 835.591 288.437 813.463 311.623C775.067 351.853 713.371 375.468 658.687 377.228C619.074 378.062 552.282 373.676 547.369 321.682C545.447 301.334 559.426 275.463 572.798 260.776C613.241 216.358 673.504 198.645 731.86 195.327ZM657.767 331.754C693.933 329.536 734.535 313.855 759.147 286.99C767.616 277.746 779.73 256.813 767.153 246.149C759.108 239.328 737.815 238.106 727.725 239.543C688.515 243.588 651.522 256.924 625.222 287.91C596.705 321.509 623.871 337.019 657.767 331.754Z"/><path fill="#2A363E" transform="scale(0.936685 0.936685)" d="M949.228 199.118C985.915 198.982 1040.26 195.861 1070.06 220.381C1099.43 244.544 1080.68 287.768 1060.1 311.42C1025.73 350.911 973.435 367.838 922.684 371.97C905.347 373.847 882.994 373.475 865.357 373.486L785.803 373.492C793.949 357.569 812.805 330.509 823.022 314.331L895.012 199.132L949.228 199.118ZM938.506 242.853C922.33 270.419 902.177 303.348 884.252 329.307C901.911 329.287 932.111 329.468 948.169 322.785C974.798 314.822 1020.57 288.92 1016.44 254.769C1014.63 239.881 957.475 242.297 944.548 242.627L938.506 242.853Z"/><path fill="#2A363E" transform="scale(0.936685 0.936685)" d="M1288.22 200.649C1288.19 202.511 1267.31 237.245 1264.6 241.87C1241.75 242.891 1212.13 241.991 1188.76 241.973L1174.76 264.651C1198.91 264.334 1223.62 264.622 1247.82 264.644C1240.62 278.353 1229.62 295.458 1221.43 308.834C1197.24 308.75 1171.26 308.194 1147.21 308.878C1142.89 315.384 1137.11 323.735 1133.83 330.621C1159.8 331.194 1187.07 330.763 1213.13 330.746C1209.91 336.93 1189.54 372.456 1185.19 373.469L1031.77 373.491C1040.51 355.56 1057.85 331.795 1068.7 314.294C1092.14 276.455 1115.44 238.389 1139.51 200.964C1151.78 200.283 1170.91 200.994 1183.79 201.021C1218.6 201.334 1253.42 201.211 1288.22 200.649Z"/><path fill="#2A363E" transform="scale(0.936685 0.936685)" d="M459.081 199.12C508.635 199.478 558.191 199.534 607.746 199.288C604.354 207.767 588.879 231.946 583.526 240.766C560.795 240.698 526.579 239.638 504.775 241.243C500.013 248.668 495.329 256.141 490.721 263.662C514.728 263.949 538.737 264.012 562.746 263.853C554.658 276.421 545.181 293.938 537.498 307.184C514.542 308.062 487.42 307.355 464.152 307.338C461.787 310.934 451.618 325.554 451.492 328.927L453.562 329.313C478.778 329.7 504.884 329.32 530.167 329.287C522.251 343.497 512.768 358.331 504.429 372.517C453.002 373.083 401.57 373.133 350.142 372.664C355.644 361.714 455.6 200.765 457.083 199.804C457.558 199.496 458.519 199.312 459.081 199.12Z"/><path fill="#2A363E" transform="scale(0.936685 0.936685)" d="M1295.16 201.102C1314.81 200.269 1340.42 201.023 1360.39 201.025L1485.95 201.124C1478.4 214.636 1470.01 228.422 1462.08 241.755C1443.03 242.304 1422.64 241.961 1403.49 241.954C1385.4 273.258 1365.29 304.903 1346.14 335.633L1322.91 373.492L1246.21 373.641C1251.23 362.276 1267.28 338.225 1274.44 326.708L1326.67 242.19C1309.94 241.373 1288.31 241.953 1271.21 241.926C1279.59 228.556 1287.58 214.942 1295.16 201.102Z"/></svg>