<svg xmlns="http://www.w3.org/2000/svg" width="512" height="512" fill="none"><path fill="#d9d9d9" d="M0 0h512v512H0z"/><circle cx="256" cy="256" r="256" fill="#d9d9d9"/><path fill="#69a44e" d="M306.779 97.5803c-23.661-1.1401-47.916-2.3089-70.387-1.008-40.54 4.0987-86.847 12.0207-114.618 44.8767-9.788 11.581-14.698 25.848-13.039 40.937 3.995 36.32 39.739 49.455 69.363 59.042-.591.328-1.185.656-1.778.983-16.632 9.181-33.203 18.328-22.071 41.43 4.83 8.729 15.696 13.603 24.775 15.818 22.587 5.511 45.136 5.612 67.811 5.713 18.732.084 37.549.168 56.542 3.302 18.544 3.061 44.973 10.312 39.87 36.144-1.503 7.608-9.597 14.886-16.163 18.417-38.95 18.755-97.971 17.685-139.417 8.419-9.362-2.093-23.645-9.704-28.012-18.162-.957-1.853-1.746-3.896-2.376-5.906 2.972-10.782 6.711-14.721 15.751-21.251-3.021-5.498-7.918-14.989-11.57-19.772-42.223 1.176-109.7592 21.746-64.3823 75.531 11.4623 13.586 48.6233 23.698 66.3373 27.96 48.121 7.542 98.105 9.578 146.699 2.924 44.052-6.032 119.141-22.001 118.885-78.814-.614-43.225-61.045-57.548-95.951-62.447-11.766-1.703-23.617-2.744-35.499-3.119-2.611-.086-7.08-.005-12.586.095-20.989.381-57.048 1.035-62.69-6.256-.801-1.034-.821-1.53-.867-2.631-.005-.13-.011-.268-.018-.417 4.41-8.083 49.482-7.943 59.686-8.785 43.175-3.563 115.441-24.663 103.328-81.171-2.363-10.838-15.471-25.118-24.766-31.289l1.123.052c19.204.883 35.687 1.642 55.21 1.414 1.709-12.793 4.277-27.622 5.588-40.2273-14.78-.6228-30.108-.503-45.458-.3833-13.308.1038-26.631.208-39.628-.1716-9.667-.2822-19.626-.7625-29.692-1.2475m-.172 99.4057c-12.311 13.716-30.508 16.333-47.92 17.605-.479.056-.96.104-1.44.141-3.731.302-7.715.125-11.474-.096-17.924-1.08-36.285-5.681-50.448-17.215-13.647-11.114-16.323-31.367-4.328-44.748 12.58-14.033 30.625-17.832 48.697-19.094 21.927-1.575 44.188 1.401 61.617 15.809 14.251 11.799 18.188 33.239 5.296 47.598"/></svg>